<svg id="mermaid-1618613799345" width="100%" xmlns="http://www.w3.org/2000/svg" xmlns:xlink="http://www.w3.org/1999/xlink" height="212" style="max-width: 573.53125px;" viewBox="-20 -20 573.53125 212"><style>#mermaid-1618613799345{font-family:"trebuchet ms",verdana,arial,sans-serif;font-size:16px;fill:#ccc;}#mermaid-1618613799345 .error-icon{fill:#a44141;}#mermaid-1618613799345 .error-text{fill:#ddd;stroke:#ddd;}#mermaid-1618613799345 .edge-thickness-normal{stroke-width:2px;}#mermaid-1618613799345 .edge-thickness-thick{stroke-width:3.5px;}#mermaid-1618613799345 .edge-pattern-solid{stroke-dasharray:0;}#mermaid-1618613799345 .edge-pattern-dashed{stroke-dasharray:3;}#mermaid-1618613799345 .edge-pattern-dotted{stroke-dasharray:2;}#mermaid-1618613799345 .marker{fill:lightgrey;stroke:lightgrey;}#mermaid-1618613799345 .marker.cross{stroke:lightgrey;}#mermaid-1618613799345 svg{font-family:"trebuchet ms",verdana,arial,sans-serif;font-size:16px;}#mermaid-1618613799345 g.classGroup text{fill:#81B1DB;fill:#e0dfdf;stroke:none;font-family:"trebuchet ms",verdana,arial,sans-serif;font-size:10px;}#mermaid-1618613799345 g.classGroup text .title{font-weight:bolder;}#mermaid-1618613799345 .classTitle{font-weight:bolder;}#mermaid-1618613799345 .node rect,#mermaid-1618613799345 .node circle,#mermaid-1618613799345 .node ellipse,#mermaid-1618613799345 .node polygon,#mermaid-1618613799345 .node path{fill:#1f2020;stroke:#81B1DB;stroke-width:1px;}#mermaid-1618613799345 .divider{stroke:#81B1DB;stroke:1;}#mermaid-1618613799345 g.clickable{cursor:pointer;}#mermaid-1618613799345 g.classGroup rect{fill:#1f2020;stroke:#81B1DB;}#mermaid-1618613799345 g.classGroup line{stroke:#81B1DB;stroke-width:1;}#mermaid-1618613799345 .classLabel .box{stroke:none;stroke-width:0;fill:#1f2020;opacity:0.5;}#mermaid-1618613799345 .classLabel .label{fill:#81B1DB;font-size:10px;}#mermaid-1618613799345 .relation{stroke:lightgrey;stroke-width:1;fill:none;}#mermaid-1618613799345 .dashed-line{stroke-dasharray:3;}#mermaid-1618613799345 #compositionStart,#mermaid-1618613799345 .composition{fill:lightgrey !important;stroke:lightgrey !important;stroke-width:1;}#mermaid-1618613799345 #compositionEnd,#mermaid-1618613799345 .composition{fill:lightgrey !important;stroke:lightgrey !important;stroke-width:1;}#mermaid-1618613799345 #dependencyStart,#mermaid-1618613799345 .dependency{fill:lightgrey !important;stroke:lightgrey !important;stroke-width:1;}#mermaid-1618613799345 #dependencyStart,#mermaid-1618613799345 .dependency{fill:lightgrey !important;stroke:lightgrey !important;stroke-width:1;}#mermaid-1618613799345 #extensionStart,#mermaid-1618613799345 .extension{fill:lightgrey !important;stroke:lightgrey !important;stroke-width:1;}#mermaid-1618613799345 #extensionEnd,#mermaid-1618613799345 .extension{fill:lightgrey !important;stroke:lightgrey !important;stroke-width:1;}#mermaid-1618613799345 #aggregationStart,#mermaid-1618613799345 .aggregation{fill:#1f2020 !important;stroke:lightgrey !important;stroke-width:1;}#mermaid-1618613799345 #aggregationEnd,#mermaid-1618613799345 .aggregation{fill:#1f2020 !important;stroke:lightgrey !important;stroke-width:1;}#mermaid-1618613799345 .edgeTerminals{font-size:11px;}#mermaid-1618613799345:root{--mermaid-font-family:"trebuchet ms",verdana,arial,sans-serif;}#mermaid-1618613799345 class{fill:apa;}</style><g></g><defs><marker id="extensionStart" class="extension" refX="0" refY="7" markerWidth="190" markerHeight="240" orient="auto"><path d="M 1,7 L18,13 V 1 Z"></path></marker></defs><defs><marker id="extensionEnd" refX="19" refY="7" markerWidth="20" markerHeight="28" orient="auto"><path d="M 1,1 V 13 L18,7 Z"></path></marker></defs><defs><marker id="compositionStart" class="extension" refX="0" refY="7" markerWidth="190" markerHeight="240" orient="auto"><path d="M 18,7 L9,13 L1,7 L9,1 Z"></path></marker></defs><defs><marker id="compositionEnd" refX="19" refY="7" markerWidth="20" markerHeight="28" orient="auto"><path d="M 18,7 L9,13 L1,7 L9,1 Z"></path></marker></defs><defs><marker id="aggregationStart" class="extension" refX="0" refY="7" markerWidth="190" markerHeight="240" orient="auto"><path d="M 18,7 L9,13 L1,7 L9,1 Z"></path></marker></defs><defs><marker id="aggregationEnd" refX="19" refY="7" markerWidth="20" markerHeight="28" orient="auto"><path d="M 18,7 L9,13 L1,7 L9,1 Z"></path></marker></defs><defs><marker id="dependencyStart" class="extension" refX="0" refY="7" markerWidth="190" markerHeight="240" orient="auto"><path d="M 5,7 L9,13 L1,7 L9,1 Z"></path></marker></defs><defs><marker id="dependencyEnd" refX="19" refY="7" markerWidth="20" markerHeight="28" orient="auto"><path d="M 18,7 L9,13 L14,7 L9,1 Z"></path></marker></defs><g id="classid-Catalog-4543" class="classGroup" transform="translate(0,10.5 )"><rect x="0" y="0" width="44.375" height="30" class=" "></rect><text y="15" x="0"><tspan class="title" x="5">Catalog</tspan></text><line x1="0" y1="21" y2="21" x2="44.375"></line><text x="5" y="31" fill="white" class="classText"></text><line x1="0" y1="26" y2="26" x2="44.375"></line><text x="5" y="41" fill="white" class="classText"></text></g><g id="classid-RedisStreams-4544" class="classGroup" transform="translate(240.34765625,101 )"><rect x="0" y="0" width="72.28125" height="71" class=" "></rect><text y="15" x="0"><tspan class="title" x="5">RedisStreams</tspan></text><line x1="0" y1="21" y2="21" x2="72.28125"></line><text x="5" y="31" fill="white" class="classText"><tspan x="5">IDENTITY</tspan><tspan x="5" dy="10">PROFILE</tspan><tspan x="5" dy="10">AI</tspan><tspan x="5" dy="10">CART</tspan></text><line x1="0" y1="67" y2="67" x2="72.28125"></line><text x="5" y="82" fill="white" class="classText"></text></g><g id="classid-IdentityService-4545" class="classGroup" transform="translate(94.375,0 )"><rect x="0" y="0" width="81.3125" height="51" class=" "></rect><text y="15" x="0"><tspan class="title" x="5">IdentityService</tspan></text><line x1="0" y1="21" y2="21" x2="81.3125"></line><text x="5" y="31" fill="white" class="classText"><tspan x="5">Check IP</tspan><tspan x="5" dy="10">Check Browser</tspan></text><line x1="0" y1="47" y2="47" x2="81.3125"></line><text x="5" y="62" fill="white" class="classText"></text></g><g id="classid-ProfileService-4546" class="classGroup" transform="translate(225.6875,5 )"><rect x="0" y="0" width="89.0625" height="41" class=" "></rect><text y="15" x="0"><tspan class="title" x="11.53125">ProfileService</tspan></text><line x1="0" y1="21" y2="21" x2="89.0625"></line><text x="5" y="31" fill="white" class="classText"><tspan x="5">Check Purchases</tspan></text><line x1="0" y1="37" y2="37" x2="89.0625"></line><text x="5" y="52" fill="white" class="classText"></text></g><g id="classid-Cart-4547" class="classGroup" transform="translate(364.75,10.5 )"><rect x="0" y="0" width="29.71875" height="30" class=" "></rect><text y="15" x="0"><tspan class="title" x="5">Cart</tspan></text><line x1="0" y1="21" y2="21" x2="29.71875"></line><text x="5" y="31" fill="white" class="classText"></text><line x1="0" y1="26" y2="26" x2="29.71875"></line><text x="5" y="41" fill="white" class="classText"></text></g><g id="classid-Redisearch-4548" class="classGroup" transform="translate(438.2890625,121.5 )"><rect x="0" y="0" width="61.421875" height="30" class=" "></rect><text y="15" x="0"><tspan class="title" x="5">Redisearch</tspan></text><line x1="0" y1="21" y2="21" x2="61.421875"></line><text x="5" y="31" fill="white" class="classText"></text><line x1="0" y1="26" y2="26" x2="61.421875"></line><text x="5" y="41" fill="white" class="classText"></text></g><g id="classid-AIService-4549" class="classGroup" transform="translate(444.46875,5 )"><rect x="0" y="0" width="89.0625" height="41" class=" "></rect><text y="15" x="0"><tspan class="title" x="22.5625">AIService</tspan></text><line x1="0" y1="21" y2="21" x2="89.0625"></line><text x="5" y="31" fill="white" class="classText"><tspan x="5">Check Purchases</tspan></text><line x1="0" y1="37" y2="37" x2="89.0625"></line><text x="5" y="52" fill="white" class="classText"></text></g><path d="M22.1875,40.5L22.1875,46.416666666666664C22.1875,52.333333333333336,22.1875,64.16666666666667,58.547526041666664,78.73364720460003C94.90755208333333,93.3006277425334,167.62760416666666,110.6012554850668,203.98763020833334,119.25156935633349L240.34765625,127.9018832276002" id="edge2371" class="relation" marker-end="url(#extensionEnd)"></path><path d="M114.75630414603961,51L111.44340449669967,55.166666666666664C108.13050484735975,59.333333333333336,101.50470554867987,67.66666666666667,122.4365975660066,79.91006338007973C143.36848958333334,92.1534600934928,191.85807291666666,108.30692018698558,216.10286458333334,116.38365023373198L240.34765625,124.46038028047836" id="edge2372" class="relation" marker-start="url(#extensionStart)"></path><g class="classLabel"><rect class="box" x="139.109375" y="83.671875" width="26.703125" height="16.015625"></rect><text class="label" x="152.4622877321763" y="95.18290055054518" fill="red" text-anchor="middle">Read</text></g><path d="M249.3841661509901,46L244.30256033415841,51C239.22095451732673,56,229.05774288366334,66,227.94264877482067,75.16666666666667C226.82755466597794,84.33333333333333,234.7605780819559,92.66666666666667,238.7270897899449,96.83333333333333L242.69360149793388,101" id="edge2373" class="relation" marker-end="url(#extensionEnd)"></path><g class="classLabel"><rect class="box" x="207.25" y="61.59375" width="29.734375" height="16.015625"></rect><text class="label" x="221.837509164171" y="73.10428354711907" fill="red" text-anchor="middle">Write</text></g><path d="M290.9074489480198,46L295.95347308168317,51C300.99949721534654,56,311.09154548267327,66,313.0593800502209,75.16666666666667C315.0272146177686,84.33333333333333,308.87083548553716,92.66666666666667,305.79264591942143,96.83333333333333L302.71445635330576,101" id="edge2374" class="relation" marker-start="url(#extensionStart)"></path><g class="classLabel"><rect class="box" x="303.734375" y="60.4375" width="26.703125" height="16.015625"></rect><text class="label" x="317.0850014971659" y="71.93879047714883" fill="red" text-anchor="middle">Read</text></g><path d="M167.27904548267327,51L172.54829311056105,55.166666666666664C177.81754073844886,59.333333333333336,188.3560359942244,67.66666666666667,200.53413778877885,77.22018056114915C212.71223958333334,86.77369445563163,226.52994791666666,97.54738891126324,233.43880208333334,102.93423613907908L240.34765625,108.32108336689488" id="edge2375" class="relation" marker-end="url(#extensionEnd)"></path><g class="classLabel"><rect class="box" x="189.140625" y="68.265625" width="29.734375" height="16.015625"></rect><text class="label" x="203.72827976234723" y="79.76888325408949" fill="red" text-anchor="middle">Write</text></g><path d="M368.1957766089109,40.5L363.6937461324257,46.416666666666664C359.1917156559405,52.333333333333336,350.1876547029703,64.16666666666667,340.9265096431518,74.53383246789839C331.6653645833333,84.90099826913014,322.1471354166667,93.80199653826027,317.3880208333333,98.25249567282533L312.62890625,102.70299480739041" id="edge2376" class="relation" marker-start="url(#extensionStart)"></path><g class="classLabel"><rect class="box" x="329.5" y="62.296875" width="26.703125" height="16.015625"></rect><text class="label" x="342.8528784794916" y="73.80618959206386" fill="red" text-anchor="middle">Read</text></g><path d="M394.46875,39.2196114840737L401.1080729166667,45.34967623672808C407.7473958333333,51.47974098938247,421.0260416666667,63.73987049469124,432.0142260674931,77.45326858067895C443.00241046831957,91.16666666666667,451.70013343663913,106.33333333333333,456.04899492079886,113.91666666666667L460.3978564049587,121.5" id="edge2377" class="relation" marker-end="url(#extensionEnd)"></path><g class="classLabel"><rect class="box" x="419.0625" y="63.890625" width="29.734375" height="16.015625"></rect><text class="label" x="433.65518221384247" y="75.40031393090668" fill="red" text-anchor="middle">Write</text></g><path d="M474.91576423267327,46L471.4805847772277,51C468.0454053217822,56,461.17504641089107,66,434.1272367471122,79.03392756456726C407.0794270833333,92.06785512913454,359.8541666666667,108.13571025826907,336.2415364583333,116.16963782283635L312.62890625,124.20356538740361" id="edge2378" class="relation" marker-start="url(#extensionStart)"></path><g class="classLabel"><rect class="box" x="387.34375" y="82.734375" width="26.703125" height="16.015625"></rect><text class="label" x="400.69587448084206" y="94.23978594584297" fill="red" text-anchor="middle">Read</text></g><path d="M497.1188118811881,46L499.09900990099004,51C501.07920792079204,56,505.03960396039605,66,474.291286355198,79.51602321791576C443.54296875,93.03204643583153,378.0859375,110.06409287166305,345.357421875,118.58011608957882L312.62890625,127.09613930749458" id="edge2379" class="relation" marker-end="url(#extensionEnd)"></path><g class="classLabel"><rect class="box" x="411.828125" y="85.984375" width="29.734375" height="16.015625"></rect><text class="label" x="426.4280744492779" y="97.48537511431857" fill="red" text-anchor="middle">Write</text></g></svg>